<svg width="29" height="38" viewBox="0 0 29 38" fill="none" xmlns="http://www.w3.org/2000/svg">
<rect x="4" width="25" height="32" rx="6" fill="#969191"/>
<rect x="2" y="3" width="25" height="32" rx="6" fill="#555252"/>
<rect y="6" width="25" height="32" rx="6" fill="white"/>
<path d="M11.1033 13.817C11.4701 13.0737 12.5299 13.0737 12.8967 13.817L14.7063 17.4835C14.8519 17.7786 15.1335 17.9832 15.4592 18.0305L19.5054 18.6185C20.3256 18.7376 20.6531 19.7456 20.0596 20.3242L17.1318 23.1781C16.8961 23.4079 16.7885 23.7389 16.8442 24.0632L17.5353 28.0931C17.6754 28.91 16.818 29.533 16.0844 29.1473L12.4653 27.2446C12.174 27.0915 11.826 27.0915 11.5347 27.2446L7.91562 29.1473C7.18199 29.533 6.32456 28.91 6.46467 28.0931L7.15585 24.0632C7.21148 23.7389 7.10393 23.4079 6.86825 23.1781L3.94038 20.3242C3.34687 19.7456 3.67438 18.7376 4.4946 18.6185L8.54081 18.0305C8.86652 17.9832 9.14808 17.7786 9.29374 17.4835L11.1033 13.817Z" fill="#969191"/>
</svg>